<svg xmlns="http://www.w3.org/2000/svg" viewBox="0 0 624.17 480.49"><defs><style>.cls-1{fill:#fff;}.cls-2{fill:#e6e6e6;}.cls-3{fill:#f2f2f2;}.cls-4{fill:#3f3d56;}.cls-5{fill:#90c1dd;}</style></defs><g id="图层_2" data-name="图层 2"><g id="图层_1-2" data-name="图层 1"><path class="cls-1" d="M624.17,480.49H0V0H624.17Z"/><path class="cls-2" d="M163.36,362.2H116.1a4.84,4.84,0,0,1-4.83-4.83V292.23a4.83,4.83,0,0,1,4.83-4.83h47.26a4.82,4.82,0,0,1,4.82,4.83v65.14A4.84,4.84,0,0,1,163.36,362.2Z"/><path class="cls-2" d="M249.53,362.2H202.28a4.84,4.84,0,0,1-4.83-4.83V230.44a4.83,4.83,0,0,1,4.83-4.83h47.25a4.83,4.83,0,0,1,4.83,4.83V357.37A4.84,4.84,0,0,1,249.53,362.2Z"/><path class="cls-2" d="M335.71,362.2H288.46a4.84,4.84,0,0,1-4.83-4.83V292.23a4.83,4.83,0,0,1,4.83-4.83h47.25a4.83,4.83,0,0,1,4.83,4.83v65.14A4.84,4.84,0,0,1,335.71,362.2Z"/><path class="cls-2" d="M421.89,362.2H374.64a4.73,4.73,0,0,1-4.83-4.61V205.83a4.72,4.72,0,0,1,4.83-4.61h47.25a4.72,4.72,0,0,1,4.83,4.61V357.59A4.73,4.73,0,0,1,421.89,362.2Z"/><path class="cls-3" d="M508.07,362.2H460.82a4.84,4.84,0,0,1-4.83-4.83V162.14a4.82,4.82,0,0,1,4.83-4.82h47.25a4.82,4.82,0,0,1,4.83,4.82V357.37A4.84,4.84,0,0,1,508.07,362.2Z"/><circle class="cls-4" cx="139.73" cy="258.13" r="9.76"/><circle class="cls-4" cx="225.91" cy="194.72" r="9.76"/><circle class="cls-4" cx="312.09" cy="258.13" r="9.76"/><circle class="cls-4" cx="398.27" cy="163.82" r="9.76"/><circle class="cls-4" cx="484.45" cy="128.05" r="9.76"/><polygon class="cls-4" points="312.29 260.32 225.91 195.61 140.7 259.43 138.75 256.83 225.91 191.55 311.88 255.94 397.31 162.45 397.66 162.31 483.84 127.59 485.05 130.61 399.22 165.19 312.29 260.32"/><path class="cls-5" d="M524.84,377.76H477.58a4.84,4.84,0,0,1-4.83-4.82V177.71a4.85,4.85,0,0,1,4.83-4.83h47.26a4.83,4.83,0,0,1,4.82,4.83V372.94A4.82,4.82,0,0,1,524.84,377.76Z"/></g></g></svg>