<svg xmlns="http://www.w3.org/2000/svg" xmlns:xlink="http://www.w3.org/1999/xlink" viewBox="0 0 390.6 487.68"><defs><style>.cls-1,.cls-2{fill:#231815;}.cls-1{stroke:#fff;}.cls-1,.cls-6,.cls-7,.cls-9{stroke-miterlimit:10;}.cls-3{fill:url(#未命名的渐变_1090);}.cls-4{fill:url(#未命名的渐变_1250);}.cls-5{fill:url(#未命名的渐变_1262);}.cls-6,.cls-7,.cls-9{fill:none;stroke:#231815;}.cls-6{stroke-width:2px;}.cls-8{fill:url(#未命名的渐变_1070);}.cls-9{stroke-width:4px;}.cls-10{fill:url(#未命名的渐变_836);}.cls-11{fill:#040000;}.cls-12{fill:#fff;}.cls-13{fill:url(#未命名的渐变_34);}.cls-14{fill:url(#未命名的渐变_45);}.cls-15{fill:url(#未命名的渐变_819);}.cls-16{fill:url(#未命名的渐变_828);}</style><linearGradient id="未命名的渐变_1090" x1="208.94" y1="417.71" x2="364.95" y2="417.71" gradientUnits="userSpaceOnUse"><stop offset="0" stop-color="#fff"/><stop offset="0.5" stop-color="#accee4"/><stop offset="1" stop-color="#569bc9"/></linearGradient><linearGradient id="未命名的渐变_1250" x1="49.44" y1="141.97" x2="410.63" y2="290.66" gradientUnits="userSpaceOnUse"><stop offset="0.13" stop-color="#fff"/><stop offset="0.13" stop-color="#fdfefe"/><stop offset="0.19" stop-color="#d0e1e9"/><stop offset="0.25" stop-color="#a9c8d7"/><stop offset="0.31" stop-color="#89b3c7"/><stop offset="0.38" stop-color="#70a3bc"/><stop offset="0.44" stop-color="#5f98b4"/><stop offset="0.52" stop-color="#5491af"/><stop offset="0.6" stop-color="#518fad"/><stop offset="0.62" stop-color="#518fb0"/><stop offset="0.72" stop-color="#5490c0"/><stop offset="0.84" stop-color="#5690c9"/><stop offset="1" stop-color="#5690cc"/></linearGradient><linearGradient id="未命名的渐变_1262" x1="76.95" y1="336.06" x2="243.75" y2="336.06" gradientUnits="userSpaceOnUse"><stop offset="0" stop-color="#231815"/><stop offset="0.12" stop-color="#251e1d"/><stop offset="0.3" stop-color="#2c2e31"/><stop offset="0.52" stop-color="#374854"/><stop offset="0.77" stop-color="#476d82"/><stop offset="1" stop-color="#5793b4"/></linearGradient><linearGradient id="未命名的渐变_1070" x1="226.67" y1="336.74" x2="397.26" y2="406.96" gradientUnits="userSpaceOnUse"><stop offset="0.13" stop-color="#fff"/><stop offset="0.16" stop-color="#f1f7fb"/><stop offset="0.25" stop-color="#c8e1ee"/><stop offset="0.35" stop-color="#a4cde4"/><stop offset="0.45" stop-color="#87bedb"/><stop offset="0.56" stop-color="#71b1d4"/><stop offset="0.68" stop-color="#61a9d0"/><stop offset="0.81" stop-color="#58a4cd"/><stop offset="1" stop-color="#55a2cc"/></linearGradient><linearGradient id="未命名的渐变_836" x1="288.9" y1="-192.45" x2="295.62" y2="288.47" gradientUnits="userSpaceOnUse"><stop offset="0.3" stop-color="#fff"/><stop offset="1" stop-color="#589cc9"/></linearGradient><linearGradient id="未命名的渐变_34" x1="291.62" y1="189.31" x2="297.36" y2="377.84" gradientUnits="userSpaceOnUse"><stop offset="0" stop-color="#fff"/><stop offset="0.18" stop-color="#fcfefe"/><stop offset="0.31" stop-color="#f3fafd"/><stop offset="0.43" stop-color="#e2f3fa"/><stop offset="0.54" stop-color="#cce9f6"/><stop offset="0.64" stop-color="#aeddf1"/><stop offset="0.74" stop-color="#8acdeb"/><stop offset="0.83" stop-color="#60bbe4"/><stop offset="0.92" stop-color="#2fa6dc"/><stop offset="1" stop-color="#0092d4"/></linearGradient><linearGradient id="未命名的渐变_45" x1="295.49" y1="278.33" x2="295.57" y2="375.25" gradientUnits="userSpaceOnUse"><stop offset="0" stop-color="#fff"/><stop offset="0.15" stop-color="#fcfefe"/><stop offset="0.28" stop-color="#f1f9fd"/><stop offset="0.4" stop-color="#dff1fa"/><stop offset="0.51" stop-color="#c6e7f5"/><stop offset="0.63" stop-color="#a5d9f0"/><stop offset="0.74" stop-color="#7dc8e9"/><stop offset="0.85" stop-color="#4eb3e1"/><stop offset="0.96" stop-color="#189cd8"/><stop offset="1" stop-color="#0092d4"/></linearGradient><linearGradient id="未命名的渐变_819" x1="240.43" y1="176.35" x2="156.2" y2="217.38" gradientUnits="userSpaceOnUse"><stop offset="0.3" stop-color="#fff"/><stop offset="0.46" stop-color="#d2e4f3"/><stop offset="0.62" stop-color="#abcde9"/><stop offset="0.77" stop-color="#8fbde2"/><stop offset="0.9" stop-color="#7eb3de"/><stop offset="1" stop-color="#78afdc"/></linearGradient><linearGradient id="未命名的渐变_828" x1="352.72" y1="167.33" x2="438.32" y2="226.44" gradientUnits="userSpaceOnUse"><stop offset="0.3" stop-color="#fff"/><stop offset="0.47" stop-color="#d1dfef"/><stop offset="0.63" stop-color="#aac4e2"/><stop offset="0.77" stop-color="#8eb0d9"/><stop offset="0.9" stop-color="#7da4d3"/><stop offset="1" stop-color="#77a0d1"/></linearGradient></defs><g id="白底"><ellipse class="cls-1" cx="193.22" cy="204.28" rx="184.56" ry="182.14"/><path class="cls-2" d="M220.44,413s11.13,4.45,16,5.25,23.4,15.66,23.4,15.66l3.15,8a58.25,58.25,0,0,0,14.3-.62c7.36-1.32,5-19.15,5-19.15l-39.58-79.24-70,24.58S214.29,411.1,220.44,413Z" transform="translate(-101.13 -40.23)"/><path class="cls-2" d="M418.06,394s3.49-4.6,15.24-21.87c10.29-15.14-23,.85-23,.85L386.86,397" transform="translate(-101.13 -40.23)"/><polygon class="cls-2" points="285.72 362.92 299.52 363.68 305.01 348.11 290.97 339.04 284.08 348.62 285.72 362.92"/><path class="cls-3" d="M269.29,441.19s-4.52-25.49,49.54-31.75c55.14-6.38,66-5,101.85-23.74,19.54-10.22-25.26,51.57-110.88,63.78C269.72,455.19,269.29,441.19,269.29,441.19Z" transform="translate(-101.13 -40.23)"/><path class="cls-4" d="M477.12,189c-16.43-36-30.91-57-57.7-88.25-19-22.2-67.91-70.28-152.17-58.77C184.6,53.27,127.51,156.93,127.51,156.93s-28.76,46.2-26.22,103.86c.94,21.17,7,45.65,19.41,66.23C157.12,387.61,220.44,413,220.44,413s22.06-36.77,87.73-52.67c-83.88-1.76-132.15-32.63-150-48.46-7.5-6-8.85-7.8-15.18-14.52a2.1,2.1,0,0,0-3.63,1.63V299a69,69,0,0,1-11.69-18.38l-.59-.41c-1,0-3.48-7.43-5.55-18-.56-2.18-1.22-4.72-1.76-7.61A123.82,123.82,0,0,1,137.09,166c17.39-27.59,47.53-64.35,93.14-84.73,1.37-1.75,72.38-31.92,137.62,7.57,61.07,37,91.57,82.72,103.49,123.23s-3.38,70.65-6.81,77.28c-18.81,36.31-73.83,54-87.11,57.71s-58.12,14.37-79,21.95c-14.57,5.28-25,8.68-43.53,23-16.93,13.07-26.6,23.66-21.15,35.91s29.28,14,29.28,14,.68-15.63,19.74-25.87c18.79-10.1,69.86-14.62,87.49-17.7,28.43-5,52.08-9.88,76.94-38.47l.7-.91c.23-.24.43-.47.65-.71a86.71,86.71,0,0,0,11.05-15.58,49.59,49.59,0,0,0,3.13-8.53,14.82,14.82,0,0,0,1.12-1.33h0a30.89,30.89,0,0,0,2.68-3.44c10.51-12.37,16.6-29.2,19.76-40C493.05,266.21,496.84,232.22,477.12,189Z" transform="translate(-101.13 -40.23)"/><path class="cls-2" d="M134.43,182c-22.47,55.7-27,118.72,20.09,163.12,17.11,16.15,38,28.11,59,38.43a154,154,0,0,0,33.54,11.34,154.93,154.93,0,0,1-34-10.26C153.32,359,111.12,319.12,114.06,250c1-24,7.23-47.44,15.71-69.76l4.66,1.81Z" transform="translate(-101.13 -40.23)"/><path class="cls-2" d="M463.82,332.8c-.92,5.11-4.52,9.37-8.22,12.84-11.66,10.32-27.3,14.92-42.22,17.68-44.22,7.2-90.85-2.28-133.35,14.22a108.09,108.09,0,0,0-37.29,24,99.78,99.78,0,0,1,35.9-27.28c32.58-14.76,69.24-13.55,104.15-15,22.06-.83,69.58-5.53,81-26.43Z" transform="translate(-101.13 -40.23)"/><path class="cls-2" d="M264.43,441.59c-.56-7.79,3.2-15.34,8.69-20.73C284.36,410,300.38,406,315.28,403.63s29.72-3.21,44.54-5c22.16-2.49,43.74-7.07,64.63-15.4C399,399.61,368,405.15,338.35,407.9c-10.68,1.1-22.51,2.08-33,4-16.93,3.09-37.85,10.21-40.93,29.71Z" transform="translate(-101.13 -40.23)"/><path class="cls-2" d="M134.78,276.37c4.15,21.75,17.17,41,33.44,56,16.68,15.32,36.71,26.92,57.84,35.13a199.62,199.62,0,0,1-31.76-13c-20.54-10.6-39.52-25-53.1-44A99.06,99.06,0,0,1,126,278.39l8.77-2Z" transform="translate(-101.13 -40.23)"/><path class="cls-2" d="M127.32,266.78c6.68,31.93,28,59.63,54.32,78.25,26.64,18.53,58.55,30.58,91.23,30.8-32.72,0-64.78-11.87-91.55-30.34-23.43-16.29-42.42-39.57-51.79-66.69a81.28,81.28,0,0,1-3.2-11.88l1-.14Z" transform="translate(-101.13 -40.23)"/><path class="cls-2" d="M169.92,111.18c51.51-55.8,125-76.55,194.26-40.33,21.1,10.93,40,25.83,56.43,42.85-17.27-16-36.28-30.41-57.47-40.79-69.37-34.54-139.75-14.35-193.22,38.27Z" transform="translate(-101.13 -40.23)"/><path class="cls-5" d="M141.38,296.59s26,71.32,124.2,79.24c0,0,26.07-12.86,42.59-15.54-5.48-.08-96.29-1.09-157.26-59.16a18.24,18.24,0,0,0-4.84-3.33C143.93,296.8,141.38,295.78,141.38,296.59Z" transform="translate(-101.13 -40.23)"/><path class="cls-6" d="M264.42,441.9s-1.76-34,51.94-37.24" transform="translate(-101.13 -40.23)"/><path class="cls-2" d="M139.08,297c14.44,20.7,30.44,41,51.52,55.3-21.92-11.29-40-33.81-51.52-55.3Z" transform="translate(-101.13 -40.23)"/><path class="cls-7" d="M262.87,441.52c1.25-8.35,7.06-27.13,34-33.85" transform="translate(-101.13 -40.23)"/><path class="cls-8" d="M263,441.9s-39.09-2.54-29.41-27.33,57.15-47.13,90.72-46.49c0,0,62.3-2.17,94.47-5.87,0,0,28.29-4.85,42.07-22.47,0,0-12.89,21.38-26.19,32.68-14.81,12.6-27.58,19.07-54,24.77C331.93,407.06,269.2,393.19,263,441.9Z" transform="translate(-101.13 -40.23)"/><path class="cls-9" d="M305,367.17s20.85-6,83.83-5.56" transform="translate(-101.13 -40.23)"/><path class="cls-2" d="M139.08,295.06a196.2,196.2,0,0,0,41.77,50.54c-19.61-9.17-36.14-29.71-41.77-50.54Z" transform="translate(-101.13 -40.23)"/><path class="cls-9" d="M223.31,413.74c7.41-12.8,31.26-43.66,95.69-55.27" transform="translate(-101.13 -40.23)"/><path class="cls-9" d="M223.31,413.74" transform="translate(-101.13 -40.23)"/><path class="cls-9" d="M220.44,419.4" transform="translate(-101.13 -40.23)"/><path class="cls-10" d="M203.5,284.1c-4.13-14.16-26.7-55-16.08-110.49C200.55,105,270.62,91,270.62,91s51.7-12,90.57,19.47C399,141,402.08,170,404,193.08c1.86,22.64-8.56,73.46-16.53,90.58s-37.76-56.36-37.76-56.36l-52.52-21.24-49,19.47L227.54,271Z" transform="translate(-101.13 -40.23)"/><circle class="cls-11" cx="137.19" cy="140.86" r="17.42"/><circle class="cls-12" cx="134.08" cy="135.31" r="4.2"/><circle class="cls-11" cx="249.93" cy="141.35" r="17.42"/><circle class="cls-12" cx="247.52" cy="135.08" r="4.2"/><path class="cls-13" d="M202,264.18s4.61-54.77,69-72.58c0,0,33.49-8.42,66.34,8.34,6.92,3.53,14.27,9,20.23,14,12.9,10.76,24.57,29.41,28.5,50.22,0,0,2.79,16.88-2.55,30.06A26,26,0,0,1,372,307.06c-14.2,7.92-45.38,17.48-65.78-29.38,0,0-2-6.42,5.24-7.74a26,26,0,0,0,20.21-16.82c4.21-11.06-6-22.57-6-22.57s-6.2-9.52-27.22-10-26.55,1.33-32.75,7.52-13.42,18.08-4.72,30.47,30.24,8.7,21.1,24.93c-7.94,14.08-40.1,40.38-65.5,22.47a34.69,34.69,0,0,1-13.55-20.61C201.37,278,201.22,276.14,202,264.18Z" transform="translate(-101.13 -40.23)"/><path class="cls-14" d="M247.07,325.89s36.5-2.21,48.34-25c0,0,16.72,24.56,48.58,25C324.52,345.36,279.16,358.2,247.07,325.89Z" transform="translate(-101.13 -40.23)"/><path class="cls-15" d="M184.6,140.85s-23.89,33.63-7.67,104.74c0,0,2.84,13.92-1,22.77a7.64,7.64,0,0,1-4.67,4.28c-5.23,1.67-16.56,2.12-28.24-17.81,0,0-23.91-40.52,3.45-77.82C154.8,166,168.93,155,184.6,140.85Z" transform="translate(-101.13 -40.23)"/><path class="cls-16" d="M404.19,140.85s22.13,36.73,11.95,93.38c0,0-13.72,41.6,5.76,40.27,0,0,27.88-4,31.42-41.16,0,0,8-31.67-11.95-57.21C441.37,176.13,426.91,155.6,404.19,140.85Z" transform="translate(-101.13 -40.23)"/><path class="cls-12" d="M295,230c-9.23,1.09-19.83,2.09-25,10.93,2.6-10.56,15.84-12.88,25-10.93Z" transform="translate(-101.13 -40.23)"/><ellipse class="cls-12" cx="310.41" cy="232.6" rx="2.19" ry="4.68" transform="matrix(0.19, -0.98, 0.98, 0.19, -77.64, 453.38)"/><path class="cls-11" d="M189.21,509.91c.61,2,1.19,3.84,1.72,5.43a40.87,40.87,0,0,1,.79,6.89,5.73,5.73,0,0,1-1.32,2.91c-.89,1.24-2.91,2-6.09,2.38a18.68,18.68,0,0,1-5-.93c-2.12-.61-3.54-2.33-4.24-5.16q-2.91-9.52-8.6-9.8t-6.23,8.48a11.8,11.8,0,0,1-1.19,4.1c-.79,1.86-3,3-6.49,3.31a27,27,0,0,1-4.1-1.19c-2.38-.79-3.84-2.87-4.37-6.22a317.8,317.8,0,0,1,0-31.78q-.27-1.59,1.19-4.63t9.14-4.37a105.16,105.16,0,0,1,18.27,0,35.76,35.76,0,0,1,10.46,2.12q6.48,2.12,8.34,11.38c0,.36-.05,1.82-.13,4.37a7,7,0,0,1-3.58,6,1.15,1.15,0,0,0-.26,1.59C188,506.16,188.59,507.89,189.21,509.91Zm-17.48-10.32q3-.66,3.31-4.11c.18-.17-.22-.92-1.19-2.25s-3.57-2.16-7.81-2.51q-7.42.79-7.42,4.76T166,500A18.15,18.15,0,0,0,171.73,499.59Z" transform="translate(-101.13 -40.23)"/><path class="cls-11" d="M203,525.8q-3.84-1.45-4.64-8.08a166.82,166.82,0,0,1,0-29.65,10.14,10.14,0,0,1,1.06-5.56q1.32-2.64,7.95-3.44a195,195,0,0,1,24.89,0c.7.17,2,.57,3.84,1.19s2.95,2.07,3.3,4.37a10.76,10.76,0,0,1-1.19,2.91c-.79,1.59-2.67,1.44-5.85,1.61-10.77.36-16.43.21-16.65,4.61s4,4.36,13,4.54c.7,0,2.66-.66,4.34-.13s2,1.73,2.36,4.2a13,13,0,0,1-1.06,3c-.7,1.68-2.64,1.28-5.64,1.45-9.36.36-13.72,1.13-13.16,5.17.72,5.15,6.14,3.92,17.26,4.1a11.07,11.07,0,0,1,4.19.4q2.64.93,3.18,4.64a11.15,11.15,0,0,1-1.19,2.91c-.8,1.59-2.78,2.47-6,2.65a123.71,123.71,0,0,1-22.77,0A14.27,14.27,0,0,1,203,525.8Z" transform="translate(-101.13 -40.23)"/><path class="cls-11" d="M294.46,524.34c-.88,1.95-3.18,3.09-6.88,3.45a4.36,4.36,0,0,1-4.11-1.06c-1.47-1.45-1.22-2.48-1.4-6.19-.18-3.53-3.5-6.61-5.09-8.38a6.89,6.89,0,0,0-10.85,0,11.33,11.33,0,0,0-3.29,7.76,8.31,8.31,0,0,1-.42,4.42c-.88,1.95-3.09,3.09-6.62,3.45a30.22,30.22,0,0,1-4.1-1.06q-3.58-1.07-4.11-6.62-.79-16.68,0-33.37c-.17-.88.14-2.33.93-4.37s3.22-3.3,7.28-3.83a32.48,32.48,0,0,1,3.71,1.45c2.29,1,2.8,2.93,3.33,6.46a11.83,11.83,0,0,0,3.55,7.44,7.49,7.49,0,0,0,5.43,2.39,7.07,7.07,0,0,0,5.3-2.39c1.49-1.59,3.37-3.48,3.54-6.66a10.35,10.35,0,0,1,.94-4.69c.8-2,2.09-3.47,6-4a32.82,32.82,0,0,1,3.7,1.45c2.3,1,3.8,3.23,4.51,6.75a265.4,265.4,0,0,1,0,33.37A12.09,12.09,0,0,1,294.46,524.34Z" transform="translate(-101.13 -40.23)"/><path class="cls-11" d="M303.86,499.85a35.11,35.11,0,0,1,2.91-8.34,23.4,23.4,0,0,1,7-8.47q4.77-3.71,13.24-4.5a38,38,0,0,1,5.16.66,28.29,28.29,0,0,1,8.34,3,22.62,22.62,0,0,1,8,7.42q3.43,5,4.23,13.5a36.8,36.8,0,0,1-.66,4.37,33.08,33.08,0,0,1-2.91,8.21,20.94,20.94,0,0,1-7.28,8.07q-5,3.45-13.77,4c-.18,0-1.46-.18-3.84-.53a33.1,33.1,0,0,1-8.34-2.65,21.42,21.42,0,0,1-8.47-7.15q-3.72-5-4-13.77C303.29,503.52,303.42,502.23,303.86,499.85Zm31.38.27q-1.33-3.31-7.15-4.11c-.36-.17-1.72.13-4.1.93s-3.85,3-4.37,6.75c-.18.36.17,1.64,1.06,3.84s3.35,3.4,7.41,3.58c.17.17,1.5-.09,4-.8s4-2.91,4.5-6.62A33.16,33.16,0,0,0,335.24,500.12Z" transform="translate(-101.13 -40.23)"/><path class="cls-11" d="M384,527.79c-2.83,0-3-1.24-4.07-3.18-2.42-11.34-6.1-13.79-7-13.45-3,1.17-2.77,4.87-3.13,10.17a7.72,7.72,0,0,1-1.19,3.57c-.79,1.5-1.33,2.53-4.51,2.89a20.64,20.64,0,0,1-3.31-.8c-1.85-.53-3-2.38-3.31-5.56q-.8-17.47,0-32.83a10,10,0,0,1,2.52-7.15A9.56,9.56,0,0,1,366,478.4a10.52,10.52,0,0,1,6.62,1.46c2.12,1.24,2.8,3.3,4,5.77,2.81,14.43,5.8,12.55,7.48,13.16s6.47-1.08,7.88-13.28c.71-2.64.73-4.86,2.85-5.91a11,11,0,0,1,6.75-1.06,12.16,12.16,0,0,1,6.22,2.78A9.11,9.11,0,0,1,411,487q.79,17.22,0,34.42a7.09,7.09,0,0,1-2.52,4.9,7.63,7.63,0,0,1-4.63,1.46c-1.77,0-1.42-.18-2.74-1.15s-2.19-1.33-2.74-4.61c-.75-4.53-.62-9.7-2.18-10.95-3.13-2.5-5.54,5.1-7.59,13.37C388.18,526.33,386.78,527.79,384,527.79Z" transform="translate(-101.13 -40.23)"/><path class="cls-11" d="M422.22,525.8q-3.84-1.45-4.63-8.08a165,165,0,0,1,0-29.65,10,10,0,0,1,1.06-5.56q1.32-2.64,7.94-3.44a195,195,0,0,1,24.89,0c.7.17,2,.57,3.84,1.19s2.95,2.07,3.31,4.37a11.15,11.15,0,0,1-1.19,2.91c-.8,1.59-2.2,1.71-5.38,1.88-10.77.36-16.66-.29-17.13,4.34-.38,3.79,4.1,3.14,13.11,3.31a14.08,14.08,0,0,1,3.57.8c1.68.52,2.69,2,3.05,4.5a13.51,13.51,0,0,1-1.06,3q-1.07,2.52-5.56,2.78c-9.36.36-13.16-.79-13.24,3.84-.1,5.07,6.45,4.12,17.58,4.29a10.83,10.83,0,0,1,3.91.63c1.76.62,2.78,1.75,3.13,4.22a10.76,10.76,0,0,1-1.19,2.91q-1.19,2.38-6,2.65a123.71,123.71,0,0,1-22.77,0A14.29,14.29,0,0,1,422.22,525.8Z" transform="translate(-101.13 -40.23)"/></g></svg>