<svg xmlns="http://www.w3.org/2000/svg" xmlns:xlink="http://www.w3.org/1999/xlink" viewBox="0 0 390.6 410.61"><defs><style>.cls-1,.cls-2{fill:#231815;}.cls-1{stroke:#fff;}.cls-1,.cls-6,.cls-7,.cls-9{stroke-miterlimit:10;}.cls-3{fill:url(#未命名的渐变_1090);}.cls-4{fill:url(#未命名的渐变_1250);}.cls-5{fill:url(#未命名的渐变_1262);}.cls-6,.cls-7,.cls-9{fill:none;stroke:#231815;}.cls-6{stroke-width:2px;}.cls-8{fill:url(#未命名的渐变_1070);}.cls-9{stroke-width:4px;}.cls-10{fill:url(#未命名的渐变_836);}.cls-11{fill:#040000;}.cls-12{fill:#fff;}.cls-13{fill:url(#未命名的渐变_34);}.cls-14{fill:url(#未命名的渐变_45);}.cls-15{fill:url(#未命名的渐变_819);}.cls-16{fill:url(#未命名的渐变_828);}</style><linearGradient id="未命名的渐变_1090" x1="208.94" y1="542.17" x2="364.95" y2="542.17" gradientUnits="userSpaceOnUse"><stop offset="0" stop-color="#fff"/><stop offset="0.5" stop-color="#accee4"/><stop offset="1" stop-color="#569bc9"/></linearGradient><linearGradient id="未命名的渐变_1250" x1="49.44" y1="266.44" x2="410.63" y2="415.13" gradientUnits="userSpaceOnUse"><stop offset="0.13" stop-color="#fff"/><stop offset="0.13" stop-color="#fdfefe"/><stop offset="0.19" stop-color="#d0e1e9"/><stop offset="0.25" stop-color="#a9c8d7"/><stop offset="0.31" stop-color="#89b3c7"/><stop offset="0.38" stop-color="#70a3bc"/><stop offset="0.44" stop-color="#5f98b4"/><stop offset="0.52" stop-color="#5491af"/><stop offset="0.6" stop-color="#518fad"/><stop offset="0.62" stop-color="#518fb0"/><stop offset="0.72" stop-color="#5490c0"/><stop offset="0.84" stop-color="#5690c9"/><stop offset="1" stop-color="#5690cc"/></linearGradient><linearGradient id="未命名的渐变_1262" x1="76.95" y1="460.53" x2="243.75" y2="460.53" gradientUnits="userSpaceOnUse"><stop offset="0" stop-color="#231815"/><stop offset="0.12" stop-color="#251e1d"/><stop offset="0.3" stop-color="#2c2e31"/><stop offset="0.52" stop-color="#374854"/><stop offset="0.77" stop-color="#476d82"/><stop offset="1" stop-color="#5793b4"/></linearGradient><linearGradient id="未命名的渐变_1070" x1="226.67" y1="461.21" x2="397.26" y2="531.43" gradientUnits="userSpaceOnUse"><stop offset="0.13" stop-color="#fff"/><stop offset="0.16" stop-color="#f1f7fb"/><stop offset="0.25" stop-color="#c8e1ee"/><stop offset="0.35" stop-color="#a4cde4"/><stop offset="0.45" stop-color="#87bedb"/><stop offset="0.56" stop-color="#71b1d4"/><stop offset="0.68" stop-color="#61a9d0"/><stop offset="0.81" stop-color="#58a4cd"/><stop offset="1" stop-color="#55a2cc"/></linearGradient><linearGradient id="未命名的渐变_836" x1="288.9" y1="-67.98" x2="295.62" y2="412.94" gradientUnits="userSpaceOnUse"><stop offset="0.3" stop-color="#fff"/><stop offset="1" stop-color="#589cc9"/></linearGradient><linearGradient id="未命名的渐变_34" x1="291.62" y1="313.78" x2="297.36" y2="502.31" gradientUnits="userSpaceOnUse"><stop offset="0" stop-color="#fff"/><stop offset="0.18" stop-color="#fcfefe"/><stop offset="0.31" stop-color="#f3fafd"/><stop offset="0.43" stop-color="#e2f3fa"/><stop offset="0.54" stop-color="#cce9f6"/><stop offset="0.64" stop-color="#aeddf1"/><stop offset="0.74" stop-color="#8acdeb"/><stop offset="0.83" stop-color="#60bbe4"/><stop offset="0.92" stop-color="#2fa6dc"/><stop offset="1" stop-color="#0092d4"/></linearGradient><linearGradient id="未命名的渐变_45" x1="295.49" y1="402.79" x2="295.57" y2="499.71" gradientUnits="userSpaceOnUse"><stop offset="0" stop-color="#fff"/><stop offset="0.15" stop-color="#fcfefe"/><stop offset="0.28" stop-color="#f1f9fd"/><stop offset="0.4" stop-color="#dff1fa"/><stop offset="0.51" stop-color="#c6e7f5"/><stop offset="0.63" stop-color="#a5d9f0"/><stop offset="0.74" stop-color="#7dc8e9"/><stop offset="0.85" stop-color="#4eb3e1"/><stop offset="0.96" stop-color="#189cd8"/><stop offset="1" stop-color="#0092d4"/></linearGradient><linearGradient id="未命名的渐变_819" x1="240.43" y1="300.81" x2="156.2" y2="341.85" gradientUnits="userSpaceOnUse"><stop offset="0.3" stop-color="#fff"/><stop offset="0.46" stop-color="#d2e4f3"/><stop offset="0.62" stop-color="#abcde9"/><stop offset="0.77" stop-color="#8fbde2"/><stop offset="0.9" stop-color="#7eb3de"/><stop offset="1" stop-color="#78afdc"/></linearGradient><linearGradient id="未命名的渐变_828" x1="352.72" y1="291.79" x2="438.32" y2="350.91" gradientUnits="userSpaceOnUse"><stop offset="0.3" stop-color="#fff"/><stop offset="0.47" stop-color="#d1dfef"/><stop offset="0.63" stop-color="#aac4e2"/><stop offset="0.77" stop-color="#8eb0d9"/><stop offset="0.9" stop-color="#7da4d3"/><stop offset="1" stop-color="#77a0d1"/></linearGradient></defs><g id="白底"><ellipse class="cls-1" cx="193.22" cy="204.28" rx="184.56" ry="182.14"/><path class="cls-2" d="M220.44,537.43s11.13,4.45,16,5.25,23.4,15.66,23.4,15.66l3.15,8a58.55,58.55,0,0,0,14.3-.63c7.36-1.31,5-19.14,5-19.14l-39.58-79.24-70,24.58S214.29,535.57,220.44,537.43Z" transform="translate(-101.13 -164.7)"/><path class="cls-2" d="M418.06,518.43s3.49-4.6,15.24-21.88c10.29-15.13-23,.85-23,.85l-23.46,24.09" transform="translate(-101.13 -164.7)"/><polygon class="cls-2" points="285.72 362.92 299.52 363.68 305.01 348.11 290.97 339.04 284.08 348.62 285.72 362.92"/><path class="cls-3" d="M269.29,565.66s-4.52-25.49,49.54-31.75c55.14-6.38,66-5,101.85-23.74C440.22,500,395.42,561.74,309.8,574,269.72,579.66,269.29,565.66,269.29,565.66Z" transform="translate(-101.13 -164.7)"/><path class="cls-4" d="M477.12,313.48c-16.43-36-30.91-57-57.7-88.25-19-22.2-67.91-70.28-152.17-58.78-82.65,11.29-139.74,115-139.74,115s-28.76,46.2-26.22,103.86c.94,21.17,7,45.65,19.41,66.23,36.42,60.59,99.74,85.94,99.74,85.94s22.06-36.78,87.73-52.67C224.29,483,176,452.13,158.14,436.3c-7.5-6-8.85-7.8-15.18-14.53a2.1,2.1,0,0,0-3.63,1.64v.07a69.28,69.28,0,0,1-11.69-18.38l-.59-.42c-1,0-3.48-7.43-5.55-18-.56-2.18-1.22-4.72-1.76-7.62a123.79,123.79,0,0,1,17.35-88.57c17.39-27.59,47.53-64.35,93.14-84.74,1.37-1.75,72.38-31.91,137.62,7.58,61.07,37,91.57,82.72,103.49,123.23s-3.38,70.65-6.81,77.28c-18.81,36.31-73.83,54-87.11,57.71s-58.12,14.36-79,21.95c-14.57,5.28-25,8.68-43.53,23-16.93,13.07-26.6,23.66-21.15,35.91s29.28,14,29.28,14,.68-15.63,19.74-25.87c18.79-10.1,69.86-14.63,87.49-17.71,28.43-5,52.08-9.87,76.94-38.46l.7-.91c.23-.24.43-.48.65-.72a86.45,86.45,0,0,0,11.05-15.57,49.59,49.59,0,0,0,3.13-8.53,16.37,16.37,0,0,0,1.12-1.33h0a30.89,30.89,0,0,0,2.68-3.44c10.51-12.37,16.6-29.2,19.76-40C493.05,390.68,496.84,356.69,477.12,313.48Z" transform="translate(-101.13 -164.7)"/><path class="cls-2" d="M134.43,306.47c-22.47,55.7-27,118.72,20.09,163.12,17.11,16.15,38,28.11,59,38.43a154.51,154.51,0,0,0,33.54,11.34,154.42,154.42,0,0,1-34-10.27c-59.74-25.61-101.94-65.5-99-134.67,1-24,7.23-47.44,15.71-69.76l4.66,1.81Z" transform="translate(-101.13 -164.7)"/><path class="cls-2" d="M463.82,457.27c-.92,5.1-4.52,9.37-8.22,12.83-11.66,10.33-27.3,14.93-42.22,17.69C369.16,495,322.53,485.51,280,502a108.09,108.09,0,0,0-37.29,24,99.67,99.67,0,0,1,35.9-27.28c32.58-14.76,69.24-13.56,104.15-15,22.06-.83,69.58-5.53,81-26.43Z" transform="translate(-101.13 -164.7)"/><path class="cls-2" d="M264.43,566.06c-.56-7.79,3.2-15.34,8.69-20.73,11.24-10.84,27.26-14.85,42.16-17.23s29.72-3.21,44.54-5c22.16-2.49,43.74-7.07,64.63-15.41C399,524.07,368,529.62,338.35,532.37c-10.68,1.1-22.51,2.07-33,4-16.93,3.09-37.85,10.21-40.93,29.71Z" transform="translate(-101.13 -164.7)"/><path class="cls-2" d="M134.78,400.84c4.15,21.75,17.17,41,33.44,56,16.68,15.32,36.71,26.91,57.84,35.13a200.56,200.56,0,0,1-31.76-13c-20.54-10.6-39.52-24.95-53.1-44A99.06,99.06,0,0,1,126,402.86l8.77-2Z" transform="translate(-101.13 -164.7)"/><path class="cls-2" d="M127.32,391.24c6.68,31.94,28,59.64,54.32,78.25,26.64,18.54,58.55,30.58,91.23,30.81-32.72,0-64.78-11.88-91.55-30.34-23.43-16.3-42.42-39.58-51.79-66.69a81.28,81.28,0,0,1-3.2-11.88l1-.15Z" transform="translate(-101.13 -164.7)"/><path class="cls-2" d="M169.92,235.64c51.51-55.79,125-76.55,194.26-40.33,21.1,10.93,40,25.83,56.43,42.86-17.27-16-36.28-30.41-57.47-40.8C293.77,162.83,223.39,183,169.92,235.64Z" transform="translate(-101.13 -164.7)"/><path class="cls-5" d="M141.38,421.06s26,71.32,124.2,79.24c0,0,26.07-12.86,42.59-15.54-5.48-.08-96.29-1.1-157.26-59.16a18.27,18.27,0,0,0-4.84-3.34C143.93,421.27,141.38,420.25,141.38,421.06Z" transform="translate(-101.13 -164.7)"/><path class="cls-6" d="M264.42,566.37s-1.76-34,51.94-37.24" transform="translate(-101.13 -164.7)"/><path class="cls-2" d="M139.08,421.49c14.44,20.7,30.44,41,51.52,55.3-21.92-11.29-40-33.82-51.52-55.3Z" transform="translate(-101.13 -164.7)"/><path class="cls-7" d="M262.87,566c1.25-8.35,7.06-27.13,34-33.85" transform="translate(-101.13 -164.7)"/><path class="cls-8" d="M263,566.37s-39.09-2.54-29.41-27.33,57.15-47.13,90.72-46.49c0,0,62.3-2.17,94.47-5.87,0,0,28.29-4.85,42.07-22.47,0,0-12.89,21.38-26.19,32.68-14.81,12.6-27.58,19.07-54,24.77C331.93,531.53,269.2,517.66,263,566.37Z" transform="translate(-101.13 -164.7)"/><path class="cls-9" d="M305,491.63s20.85-6,83.83-5.56" transform="translate(-101.13 -164.7)"/><path class="cls-2" d="M139.08,419.53a196.36,196.36,0,0,0,41.77,50.54c-19.61-9.17-36.14-29.71-41.77-50.54Z" transform="translate(-101.13 -164.7)"/><path class="cls-9" d="M223.31,538.21c7.41-12.8,31.26-43.66,95.69-55.28" transform="translate(-101.13 -164.7)"/><path class="cls-9" d="M223.31,538.21" transform="translate(-101.13 -164.7)"/><path class="cls-9" d="M220.44,543.87" transform="translate(-101.13 -164.7)"/><path class="cls-10" d="M203.5,408.57c-4.13-14.17-26.7-55-16.08-110.49,13.13-68.59,83.2-82.61,83.2-82.61s51.7-12,90.57,19.47C399,265.48,402.08,294.46,404,317.55c1.86,22.64-8.56,73.46-16.53,90.57s-37.76-56.35-37.76-56.35l-52.52-21.24L248.2,350l-20.66,45.44Z" transform="translate(-101.13 -164.7)"/><circle class="cls-11" cx="137.19" cy="140.86" r="17.42"/><circle class="cls-12" cx="134.08" cy="135.31" r="4.2"/><circle class="cls-11" cx="249.93" cy="141.35" r="17.42"/><circle class="cls-12" cx="247.52" cy="135.08" r="4.2"/><path class="cls-13" d="M202,388.65s4.61-54.77,69-72.58c0,0,33.49-8.43,66.34,8.34,6.92,3.53,14.27,9,20.23,14,12.9,10.77,24.57,29.42,28.5,50.23,0,0,2.79,16.88-2.55,30.05A26,26,0,0,1,372,431.53c-14.2,7.92-45.38,17.47-65.78-29.38,0,0-2-6.42,5.24-7.75a25.94,25.94,0,0,0,20.21-16.81c4.21-11.07-6-22.57-6-22.57s-6.2-9.52-27.22-10-26.55,1.33-32.75,7.52-13.42,18.07-4.72,30.47,30.24,8.7,21.1,24.93c-7.94,14.08-40.1,40.38-65.5,22.47a34.72,34.72,0,0,1-13.55-20.61C201.37,402.51,201.22,400.61,202,388.65Z" transform="translate(-101.13 -164.7)"/><path class="cls-14" d="M247.07,450.36s36.5-2.21,48.34-25c0,0,16.72,24.56,48.58,25C324.52,469.83,279.16,482.67,247.07,450.36Z" transform="translate(-101.13 -164.7)"/><path class="cls-15" d="M184.6,265.32S160.71,299,176.93,370.05c0,0,2.84,13.92-1,22.78a7.64,7.64,0,0,1-4.67,4.28c-5.23,1.67-16.56,2.12-28.24-17.82,0,0-23.91-40.51,3.45-77.81C154.8,290.46,168.93,279.43,184.6,265.32Z" transform="translate(-101.13 -164.7)"/><path class="cls-16" d="M404.19,265.32s22.13,36.73,11.95,93.38c0,0-13.72,41.6,5.76,40.27,0,0,27.88-4,31.42-41.16,0,0,8-31.67-11.95-57.21C441.37,300.6,426.91,280.07,404.19,265.32Z" transform="translate(-101.13 -164.7)"/><path class="cls-12" d="M295,354.43c-9.23,1.09-19.83,2.08-25,10.93,2.6-10.56,15.84-12.88,25-10.93Z" transform="translate(-101.13 -164.7)"/><ellipse class="cls-12" cx="310.41" cy="357.06" rx="2.19" ry="4.68" transform="matrix(0.19, -0.98, 0.98, 0.19, -199.88, 429.93)"/></g></svg>