<svg width="45" height="45" viewBox="0 0 45 45" fill="none" xmlns="http://www.w3.org/2000/svg">
<path d="M38.9683 45H6.02174C4.42468 45 2.89302 44.3654 1.76373 43.2359C0.634432 42.1063 0 40.5743 0 38.9769V6.02308C0 4.42566 0.634432 2.89366 1.76373 1.76412C2.89302 0.634572 4.42468 0 6.02174 0H38.9683C40.5653 0 42.097 0.634572 43.2263 1.76412C44.3556 2.89366 44.99 4.42566 44.99 6.02308V38.9769C44.99 40.5743 44.3556 42.1063 43.2263 43.2359C42.097 44.3654 40.5653 45 38.9683 45ZM6.02174 3.46154C5.34253 3.46154 4.69114 3.73141 4.21086 4.21179C3.73059 4.69218 3.46077 5.34371 3.46077 6.02308V38.9769C3.46077 39.6563 3.73059 40.3078 4.21086 40.7882C4.69114 41.2686 5.34253 41.5385 6.02174 41.5385H38.9683C39.6475 41.5385 40.2989 41.2686 40.7792 40.7882C41.2594 40.3078 41.5293 39.6563 41.5293 38.9769V6.02308C41.5293 5.34371 41.2594 4.69218 40.7792 4.21179C40.2989 3.73141 39.6475 3.46154 38.9683 3.46154H6.02174Z" fill="#AEB3B7"/>
<path d="M1.73039 38.2154C1.48114 38.2146 1.23492 38.1607 1.00815 38.0572C0.781383 37.9538 0.579271 37.8031 0.415293 37.6154C0.267704 37.4414 0.155959 37.24 0.0864856 37.0227C0.0170121 36.8054 -0.00881896 36.5765 0.010479 36.3491C0.0297769 36.1218 0.093823 35.9005 0.198932 35.698C0.304042 35.4955 0.448141 35.3158 0.622939 35.1692L12.4357 25.2C13.3177 24.4554 14.4466 24.0685 15.5997 24.1155C16.7529 24.1625 17.8466 24.64 18.6651 25.4538L24.2715 31.0615C24.4805 31.2403 24.7464 31.3385 25.0214 31.3385C25.2963 31.3385 25.5623 31.2403 25.7712 31.0615L31.2162 27.1154C32.023 26.4941 33.0127 26.1572 34.0309 26.1572C35.0492 26.1572 36.0388 26.4941 36.8457 27.1154L44.344 33.0923C44.5228 33.2347 44.6717 33.411 44.7824 33.611C44.8931 33.811 44.9632 34.0309 44.989 34.258C45.0147 34.4852 44.9954 34.7152 44.9322 34.9349C44.8691 35.1546 44.7633 35.3597 44.6209 35.5385C44.4785 35.7173 44.3023 35.8663 44.1023 35.9769C43.9023 36.0876 43.6825 36.1578 43.4554 36.1835C43.2283 36.2092 42.9984 36.19 42.7787 36.1268C42.5591 36.0636 42.354 35.9578 42.1753 35.8154L34.7 29.8154C34.4983 29.6601 34.2509 29.5758 33.9963 29.5758C33.7417 29.5758 33.4943 29.6601 33.2926 29.8154L27.8477 34.0385C26.9614 34.7041 25.8652 35.0284 24.7595 34.9522C23.6538 34.8759 22.6125 34.4041 21.8259 33.6231L16.2195 27.9C16.0075 27.7086 15.7321 27.6027 15.4466 27.6027C15.161 27.6027 14.8856 27.7086 14.6737 27.9L2.83783 37.8231C2.52878 38.0844 2.13499 38.2239 1.73039 38.2154Z" fill="#AEB3B7"/>
<path d="M29.4166 21.9231C28.1617 21.9231 26.935 21.5509 25.8916 20.8536C24.8482 20.1562 24.035 19.1651 23.5548 18.0055C23.0746 16.8459 22.9489 15.5699 23.1937 14.3389C23.4385 13.1078 24.0428 11.977 24.9301 11.0895C25.8175 10.202 26.948 9.59758 28.1788 9.35271C29.4095 9.10784 30.6852 9.23352 31.8446 9.71384C33.0039 10.1942 33.9949 11.0076 34.692 12.0512C35.3892 13.0948 35.7613 14.3218 35.7613 15.5769C35.7613 17.26 35.0928 18.8742 33.903 20.0643C32.7131 21.2545 31.0993 21.9231 29.4166 21.9231ZM29.4166 12.6923C28.8462 12.6923 28.2886 12.8615 27.8143 13.1785C27.34 13.4954 26.9704 13.9459 26.7521 14.473C26.5338 15.0001 26.4767 15.5801 26.588 16.1397C26.6993 16.6992 26.974 17.2132 27.3773 17.6167C27.7806 18.0201 28.2945 18.2948 28.8539 18.4061C29.4134 18.5174 29.9932 18.4603 30.5202 18.242C31.0472 18.0236 31.4976 17.6539 31.8145 17.1795C32.1314 16.7052 32.3005 16.1474 32.3005 15.5769C32.3005 14.8119 31.9967 14.0782 31.4558 13.5372C30.915 12.9962 30.1814 12.6923 29.4166 12.6923Z" fill="#AEB3B7"/>
</svg>
